<svg id="visual" viewBox="0 0 900 600" width="900" height="600" xmlns="http://www.w3.org/2000/svg" xmlns:xlink="http://www.w3.org/1999/xlink" version="1.1"><rect x="0" y="0" width="900" height="600" fill="#FFFFFF"></rect><path d="M0 387L21.5 407.2C43 427.3 86 467.7 128.8 476C171.7 484.3 214.3 460.7 257.2 449.3C300 438 343 439 385.8 442.5C428.7 446 471.3 452 514.2 453.7C557 455.3 600 452.7 642.8 445.5C685.7 438.3 728.3 426.7 771.2 435.3C814 444 857 473 878.5 487.5L900 502L900 601L878.5 601C857 601 814 601 771.2 601C728.3 601 685.7 601 642.8 601C600 601 557 601 514.2 601C471.3 601 428.7 601 385.8 601C343 601 300 601 257.2 601C214.3 601 171.7 601 128.8 601C86 601 43 601 21.5 601L0 601Z" fill="#11d0e2" stroke-linecap="round" stroke-linejoin="miter"></path></svg>